{"cells":[{"cell_type":"code","execution_count":1,"metadata":{"executionInfo":{"elapsed":5,"status":"ok","timestamp":1662961179152,"user":{"displayName":"santhosh kurnapally","userId":"15491120331264307379"},"user_tz":-330},"id":"9pCDyMXwKlx3"},"outputs":[],"source":["from google.colab import drive # to use goolge drive as disk"]},{"cell_type":"code","execution_count":2,"metadata":{"colab":{"base_uri":"https://localhost:8080/"},"executionInfo":{"elapsed":27864,"status":"ok","timestamp":1662961213376,"user":{"displayName":"santhosh kurnapally","userId":"15491120331264307379"},"user_tz":-330},"id":"FhMHBWLLyTDn","outputId":"f62c756a-b789-46fd-8078-c664ee41ff5e"},"outputs":[{"name":"stdout","output_type":"stream","text":["Mounted at /content/gdrive/\n"]}],"source":["drive.mount('/content/gdrive/') # mounting gdrive"]},{"cell_type":"code","execution_count":4,"metadata":{"colab":{"base_uri":"https://localhost:8080/"},"executionInfo":{"elapsed":10,"status":"ok","timestamp":1662961409525,"user":{"displayName":"santhosh kurnapally","userId":"15491120331264307379"},"user_tz":-330},"id":"LRg9mk66K47i","outputId":"500d06dd-4e9e-4e7e-e6d4-d69f61ff3127"},"outputs":[{"name":"stdout","output_type":"stream","text":["/content/gdrive/MyDrive/Web_API/Speech-to-text\n","GCP_speech_to_text_APIs.ipynb  parts\t\t speechtextcredentals.json\n","genevieve.wav\t\t       requirements.txt\n"]}],"source":["%cd /content/gdrive/MyDrive/Web_API/Speech-to-text\n","!ls "]},{"cell_type":"markdown","metadata":{"id":"zgFh67bL5TM8"},"source":["# Preparing environment for this speech to text api\n","\n","- Create an environment with python3"]},{"cell_type":"code","execution_count":5,"metadata":{"colab":{"base_uri":"https://localhost:8080/"},"executionInfo":{"elapsed":1525,"status":"ok","timestamp":1662961279267,"user":{"displayName":"santhosh kurnapally","userId":"15491120331264307379"},"user_tz":-330},"id":"Em4J1hpUWwjC","outputId":"1f38a7fb-c348-4687-e3c0-c2252d78652c"},"outputs":[{"name":"stdout","output_type":"stream","text":["google-api-python-client==1.6.4\n","httplib2==0.10.3\n","oauth2client==4.1.2\n","pyasn1==0.4.2\n","pyasn1-modules==0.2.1\n","rsa==3.4.2\n","six==1.12.0\n","SpeechRecognition==3.8.1\n","tqdm==4.19.5\n","uritemplate==3.0.0\n"]}],"source":["!cat requirements.txt # libraries required"]},{"cell_type":"code","execution_count":6,"metadata":{"colab":{"base_uri":"https://localhost:8080/","height":1000},"executionInfo":{"elapsed":18776,"status":"ok","timestamp":1662961301709,"user":{"displayName":"santhosh kurnapally","userId":"15491120331264307379"},"user_tz":-330},"id":"6ll8GE-ZONqA","outputId":"7857d68e-c4d0-45ca-c9d0-594bce6eaead"},"outputs":[{"name":"stdout","output_type":"stream","text":["Looking in indexes: https://pypi.org/simple, https://us-python.pkg.dev/colab-wheels/public/simple/\n","Collecting google-api-python-client==1.6.4\n","  Downloading google_api_python_client-1.6.4-py2.py3-none-any.whl (53 kB)\n","\u001b[K     |████████████████████████████████| 53 kB 978 kB/s \n","\u001b[?25hCollecting httplib2==0.10.3\n","  Downloading httplib2-0.10.3.tar.gz (204 kB)\n","\u001b[K     |████████████████████████████████| 204 kB 3.9 MB/s \n","\u001b[?25hCollecting oauth2client==4.1.2\n","  Downloading oauth2client-4.1.2-py2.py3-none-any.whl (99 kB)\n","\u001b[K     |████████████████████████████████| 99 kB 8.1 MB/s \n","\u001b[?25hCollecting pyasn1==0.4.2\n","  Downloading pyasn1-0.4.2-py2.py3-none-any.whl (71 kB)\n","\u001b[K     |████████████████████████████████| 71 kB 8.6 MB/s \n","\u001b[?25hCollecting pyasn1-modules==0.2.1\n","  Downloading pyasn1_modules-0.2.1-py2.py3-none-any.whl (60 kB)\n","\u001b[K     |████████████████████████████████| 60 kB 6.8 MB/s \n","\u001b[?25hCollecting rsa==3.4.2\n","  Downloading rsa-3.4.2-py2.py3-none-any.whl (46 kB)\n","\u001b[K     |████████████████████████████████| 46 kB 1.7 MB/s \n","\u001b[?25hCollecting six==1.12.0\n","  Downloading six-1.12.0-py2.py3-none-any.whl (10 kB)\n","Collecting SpeechRecognition==3.8.1\n","  Downloading SpeechRecognition-3.8.1-py2.py3-none-any.whl (32.8 MB)\n","\u001b[K     |████████████████████████████████| 32.8 MB 1.4 MB/s \n","\u001b[?25hCollecting tqdm==4.19.5\n","  Downloading tqdm-4.19.5-py2.py3-none-any.whl (51 kB)\n","\u001b[K     |████████████████████████████████| 51 kB 115 kB/s \n","\u001b[?25hCollecting uritemplate==3.0.0\n","  Downloading uritemplate-3.0.0-py2.py3-none-any.whl (10 kB)\n","Building wheels for collected packages: httplib2\n","  Building wheel for httplib2 (setup.py) ... \u001b[?25l\u001b[?25hdone\n","  Created wheel for httplib2: filename=httplib2-0.10.3-py3-none-any.whl size=83988 sha256=ce8af08a0f3d290de0e26b0046a077b7a77ff4c627e0843a099bccffe233e5f2\n","  Stored in directory: /root/.cache/pip/wheels/66/4a/d3/bcc7821f2c675e9e22669ad50027cf72f837309f1f45b6b37c\n","Successfully built httplib2\n","Installing collected packages: pyasn1, six, rsa, pyasn1-modules, httplib2, uritemplate, oauth2client, tqdm, SpeechRecognition, google-api-python-client\n","  Attempting uninstall: pyasn1\n","    Found existing installation: pyasn1 0.4.8\n","    Uninstalling pyasn1-0.4.8:\n","      Successfully uninstalled pyasn1-0.4.8\n","  Attempting uninstall: six\n","    Found existing installation: six 1.15.0\n","    Uninstalling six-1.15.0:\n","      Successfully uninstalled six-1.15.0\n","  Attempting uninstall: rsa\n","    Found existing installation: rsa 4.9\n","    Uninstalling rsa-4.9:\n","      Successfully uninstalled rsa-4.9\n","  Attempting uninstall: pyasn1-modules\n","    Found existing installation: pyasn1-modules 0.2.8\n","    Uninstalling pyasn1-modules-0.2.8:\n","      Successfully uninstalled pyasn1-modules-0.2.8\n","  Attempting uninstall: httplib2\n","    Found existing installation: httplib2 0.17.4\n","    Uninstalling httplib2-0.17.4:\n","      Successfully uninstalled httplib2-0.17.4\n","  Attempting uninstall: uritemplate\n","    Found existing installation: uritemplate 3.0.1\n","    Uninstalling uritemplate-3.0.1:\n","      Successfully uninstalled uritemplate-3.0.1\n","  Attempting uninstall: oauth2client\n","    Found existing installation: oauth2client 4.1.3\n","    Uninstalling oauth2client-4.1.3:\n","      Successfully uninstalled oauth2client-4.1.3\n","  Attempting uninstall: tqdm\n","    Found existing installation: tqdm 4.64.0\n","    Uninstalling tqdm-4.64.0:\n","      Successfully uninstalled tqdm-4.64.0\n","  Attempting uninstall: google-api-python-client\n","    Found existing installation: google-api-python-client 1.12.11\n","    Uninstalling google-api-python-client-1.12.11:\n","      Successfully uninstalled google-api-python-client-1.12.11\n","\u001b[31mERROR: pip's dependency resolver does not currently take into account all the packages that are installed. This behaviour is the source of the following dependency conflicts.\n","ipython 7.9.0 requires jedi\u003e=0.10, which is not installed.\n","spacy 3.4.1 requires tqdm\u003c5.0.0,\u003e=4.38.0, but you have tqdm 4.19.5 which is incompatible.\n","prophet 1.1 requires tqdm\u003e=4.36.1, but you have tqdm 4.19.5 which is incompatible.\n","panel 0.12.1 requires tqdm\u003e=4.48.0, but you have tqdm 4.19.5 which is incompatible.\n","google-api-core 1.31.6 requires six\u003e=1.13.0, but you have six 1.12.0 which is incompatible.\n","firebase-admin 4.4.0 requires google-api-python-client\u003e=1.7.8, but you have google-api-python-client 1.6.4 which is incompatible.\n","earthengine-api 0.1.322 requires google-api-python-client\u003c2,\u003e=1.12.1, but you have google-api-python-client 1.6.4 which is incompatible.\u001b[0m\n","Successfully installed SpeechRecognition-3.8.1 google-api-python-client-1.6.4 httplib2-0.10.3 oauth2client-4.1.2 pyasn1-0.4.2 pyasn1-modules-0.2.1 rsa-3.4.2 six-1.12.0 tqdm-4.19.5 uritemplate-3.0.0\n"]},{"data":{"application/vnd.colab-display-data+json":{"pip_warning":{"packages":["six"]}}},"metadata":{},"output_type":"display_data"}],"source":["!pip install -r requirements.txt # installing libraries as needed."]},{"cell_type":"markdown","metadata":{"id":"1yPv3JrrIwFj"},"source":["- Divide the source into multiple parts\n","\n","```ffmpeg -i genevieve.wav -f segment -segment_time 30 -c copy parts/out%09d.wav```"]},{"cell_type":"code","execution_count":126,"metadata":{"colab":{"base_uri":"https://localhost:8080/"},"executionInfo":{"elapsed":764,"status":"ok","timestamp":1662964724111,"user":{"displayName":"santhosh kurnapally","userId":"15491120331264307379"},"user_tz":-330},"id":"p487Gu71ONge","outputId":"e051bf3a-70a8-48a1-a966-e67ba1164b20"},"outputs":[{"name":"stdout","output_type":"stream","text":["/content/gdrive/MyDrive/Web_API/Speech-to-text\n"]}],"source":["!pwd"]},{"cell_type":"markdown","metadata":{"id":"DhCNye1dXBSI"},"source":["# English Recognition"]},{"cell_type":"code","execution_count":127,"metadata":{"colab":{"base_uri":"https://localhost:8080/"},"executionInfo":{"elapsed":9,"status":"ok","timestamp":1662964725949,"user":{"displayName":"santhosh kurnapally","userId":"15491120331264307379"},"user_tz":-330},"id":"Hy6DPMJ4V5tx","outputId":"65b3faf1-99d2-4abd-c1da-1ef4e5a4253c"},"outputs":[{"name":"stdout","output_type":"stream","text":["ffmpeg version 3.4.11-0ubuntu0.1 Copyright (c) 2000-2022 the FFmpeg developers\n","  built with gcc 7 (Ubuntu 7.5.0-3ubuntu1~18.04)\n","  configuration: --prefix=/usr --extra-version=0ubuntu0.1 --toolchain=hardened --libdir=/usr/lib/x86_64-linux-gnu --incdir=/usr/include/x86_64-linux-gnu --enable-gpl --disable-stripping --enable-avresample --enable-avisynth --enable-gnutls --enable-ladspa --enable-libass --enable-libbluray --enable-libbs2b --enable-libcaca --enable-libcdio --enable-libflite --enable-libfontconfig --enable-libfreetype --enable-libfribidi --enable-libgme --enable-libgsm --enable-libmp3lame --enable-libmysofa --enable-libopenjpeg --enable-libopenmpt --enable-libopus --enable-libpulse --enable-librubberband --enable-librsvg --enable-libshine --enable-libsnappy --enable-libsoxr --enable-libspeex --enable-libssh --enable-libtheora --enable-libtwolame --enable-libvorbis --enable-libvpx --enable-libwavpack --enable-libwebp --enable-libx265 --enable-libxml2 --enable-libxvid --enable-libzmq --enable-libzvbi --enable-omx --enable-openal --enable-opengl --enable-sdl2 --enable-libdc1394 --enable-libdrm --enable-libiec61883 --enable-chromaprint --enable-frei0r --enable-libopencv --enable-libx264 --enable-shared\n","  libavutil      55. 78.100 / 55. 78.100\n","  libavcodec     57.107.100 / 57.107.100\n","  libavformat    57. 83.100 / 57. 83.100\n","  libavdevice    57. 10.100 / 57. 10.100\n","  libavfilter     6.107.100 /  6.107.100\n","  libavresample   3.  7.  0 /  3.  7.  0\n","  libswscale      4.  8.100 /  4.  8.100\n","  libswresample   2.  9.100 /  2.  9.100\n","  libpostproc    54.  7.100 / 54.  7.100\n","\u001b[0;33mGuessed Channel Layout for Input Stream #0.0 : mono\n","\u001b[0mInput #0, wav, from 'english.wav':\n","  Duration: 00:01:10.33, bitrate: 768 kb/s\n","    Stream #0:0: Audio: pcm_s16le ([1][0][0][0] / 0x0001), 48000 Hz, mono, s16, 768 kb/s\n","\u001b[1;35m[segment @ 0x55afa41e4c00] \u001b[0mOpening 'parts/out000000000.wav' for writing\n","Output #0, segment, to 'parts/out%09d.wav':\n","  Metadata:\n","    encoder         : Lavf57.83.100\n","    Stream #0:0: Audio: pcm_s16le ([1][0][0][0] / 0x0001), 48000 Hz, mono, s16, 768 kb/s\n","Stream mapping:\n","  Stream #0:0 -\u003e #0:0 (copy)\n","Press [q] to stop, [?] for help\n","\u001b[1;35m[segment @ 0x55afa41e4c00] \u001b[0mOpening 'parts/out000000001.wav' for writing\n","\u001b[1;35m[segment @ 0x55afa41e4c00] \u001b[0mOpening 'parts/out000000002.wav' for writing\n","size=N/A time=00:01:10.31 bitrate=N/A speed= 689x    \n","video:0kB audio:6594kB subtitle:0kB other streams:0kB global headers:0kB muxing overhead: unknown\n"]}],"source":["!ffmpeg -i english.wav -f segment -segment_time 30 -c copy parts/out%09d.wav"]},{"cell_type":"code","execution_count":128,"metadata":{"colab":{"base_uri":"https://localhost:8080/"},"executionInfo":{"elapsed":728,"status":"ok","timestamp":1662964738278,"user":{"displayName":"santhosh kurnapally","userId":"15491120331264307379"},"user_tz":-330},"id":"iRV9aOFcWz88","outputId":"a61481b3-ee7f-4bac-ad0e-d7a4b9b58739"},"outputs":[{"data":{"text/plain":["\u003cmodule 'speech_recognition' from '/usr/local/lib/python3.7/dist-packages/speech_recognition/__init__.py'\u003e"]},"execution_count":128,"metadata":{},"output_type":"execute_result"}],"source":["# from SpeechRecognition package, import speech_recognition module\n","# https://github.com/Uberi/speech_recognition#readme\n","import speech_recognition as sr\n","sr"]},{"cell_type":"code","execution_count":129,"metadata":{"executionInfo":{"elapsed":2,"status":"ok","timestamp":1662964740295,"user":{"displayName":"santhosh kurnapally","userId":"15491120331264307379"},"user_tz":-330},"id":"PEY5S1HoPowD"},"outputs":[],"source":["import os\n","from tqdm import tqdm\n","\n","from multiprocessing.dummy import Pool\n","pool = Pool(8) # Number of concurrent threads"]},{"cell_type":"code","execution_count":130,"metadata":{"colab":{"base_uri":"https://localhost:8080/"},"executionInfo":{"elapsed":5,"status":"ok","timestamp":1662964741623,"user":{"displayName":"santhosh kurnapally","userId":"15491120331264307379"},"user_tz":-330},"id":"XvI7XzdcWPwJ","outputId":"cd6d4730-c4e8-4bdc-ca14-d0926e863466"},"outputs":[{"data":{"text/plain":["\u003cmultiprocessing.pool.ThreadPool at 0x7fee685bfa10\u003e"]},"execution_count":130,"metadata":{},"output_type":"execute_result"}],"source":["pool"]},{"cell_type":"markdown","metadata":{"id":"3IB1kBWOWShh"},"source":["- Read the file contents of api-key.json file"]},{"cell_type":"code","execution_count":131,"metadata":{"executionInfo":{"elapsed":3,"status":"ok","timestamp":1662964741624,"user":{"displayName":"santhosh kurnapally","userId":"15491120331264307379"},"user_tz":-330},"id":"vkAL9fsfPral"},"outputs":[],"source":["with open(\"api-key.json\") as f:\n","    GOOGLE_CLOUD_SPEECH_CREDENTIALS = f.read()"]},{"cell_type":"code","execution_count":132,"metadata":{"colab":{"base_uri":"https://localhost:8080/","height":36},"executionInfo":{"elapsed":5,"status":"ok","timestamp":1662964743269,"user":{"displayName":"santhosh kurnapally","userId":"15491120331264307379"},"user_tz":-330},"id":"vXVGDt8hWZXl","outputId":"ebeedc98-f3f4-46a4-f80a-91bbc00e1c0a"},"outputs":[{"data":{"application/vnd.google.colaboratory.intrinsic+json":{"type":"string"},"text/plain":["'{\\n  \"type\"....\"'"]},"execution_count":132,"metadata":{},"output_type":"execute_result"}],"source":["GOOGLE_CLOUD_SPEECH_CREDENTIALS[:10]+'....\"' # cannot show you my key, sorry!"]},{"cell_type":"code","execution_count":133,"metadata":{"colab":{"base_uri":"https://localhost:8080/"},"executionInfo":{"elapsed":6,"status":"ok","timestamp":1662964744464,"user":{"displayName":"santhosh kurnapally","userId":"15491120331264307379"},"user_tz":-330},"id":"v6CJypKnPxZB","outputId":"f0682fb1-44f3-4fb2-bdc3-df5bb0cb690f"},"outputs":[{"data":{"text/plain":["\u003cspeech_recognition.Recognizer at 0x7fee68636e10\u003e"]},"execution_count":133,"metadata":{},"output_type":"execute_result"}],"source":["# get the recogniser from the speech_recognition api\n","r = sr.Recognizer()\n","r"]},{"cell_type":"code","execution_count":134,"metadata":{"colab":{"base_uri":"https://localhost:8080/"},"executionInfo":{"elapsed":6,"status":"ok","timestamp":1662964745862,"user":{"displayName":"santhosh kurnapally","userId":"15491120331264307379"},"user_tz":-330},"id":"aQZLgyoqXUgA","outputId":"dc199778-8a53-4787-a50d-2ed507147d14"},"outputs":[{"data":{"text/plain":["['out000000000.wav', 'out000000001.wav', 'out000000002.wav']"]},"execution_count":134,"metadata":{},"output_type":"execute_result"}],"source":["# get the list of all the files that we want to convert\n","files = sorted(os.listdir('parts/'))\n","files"]},{"cell_type":"markdown","metadata":{"id":"4yLyRJnIXdwb"},"source":["- Fucntion to convert the audio to text."]},{"cell_type":"code","execution_count":90,"metadata":{"colab":{"base_uri":"https://localhost:8080/","height":62,"output_embedded_package_id":"1eafVnYg8STzs89t19AEkha6_3CvphYQW"},"executionInfo":{"elapsed":13769,"status":"ok","timestamp":1662963659577,"user":{"displayName":"santhosh kurnapally","userId":"15491120331264307379"},"user_tz":-330},"id":"2e48TJLgXngY","outputId":"006fd110-ff77-436f-d92b-f7a5db7b683a"},"outputs":[{"data":{"text/plain":"Output hidden; open in https://colab.research.google.com to view."},"metadata":{},"output_type":"display_data"}],"source":["name = 'parts/'+files[0]\n","from IPython.display import Audio\n","Audio(name)"]},{"cell_type":"code","execution_count":91,"metadata":{"colab":{"base_uri":"https://localhost:8080/"},"executionInfo":{"elapsed":21,"status":"ok","timestamp":1662963660145,"user":{"displayName":"santhosh kurnapally","userId":"15491120331264307379"},"user_tz":-330},"id":"pmYB7zDZX-eE","outputId":"58b93218-3f58-4214-e5b0-4536e7b51c96"},"outputs":[{"data":{"text/plain":["\u003cspeech_recognition.AudioData at 0x7fee63611b10\u003e"]},"execution_count":91,"metadata":{},"output_type":"execute_result"}],"source":["# Load audio file\n","with sr.AudioFile(name) as source:\n","    audio = r.record(source)\n","audio"]},{"cell_type":"code","execution_count":92,"metadata":{"colab":{"base_uri":"https://localhost:8080/","height":73},"executionInfo":{"elapsed":19,"status":"ok","timestamp":1662963660147,"user":{"displayName":"santhosh kurnapally","userId":"15491120331264307379"},"user_tz":-330},"id":"lxxdX1uqYdwD","outputId":"eeab59ba-8fbf-4636-f446-5693f4f37ac5"},"outputs":[{"data":{"application/vnd.google.colaboratory.intrinsic+json":{"type":"string"},"text/plain":["'this Dynamic Workshop aims to provide up-to-date information on pharmacological approaches, issues, and treatment in the geriatric population to assist in preventing medication related problems, appropriately and effectively managing medications and compliance. The concept of polypharmacy parentheses taking multiple types of drugs parentheses will also be discussed, as though '"]},"execution_count":92,"metadata":{},"output_type":"execute_result"}],"source":["# Transcribe audio file\n","text = r.recognize_google_cloud(\n","    audio,\n","    credentials_json=GOOGLE_CLOUD_SPEECH_CREDENTIALS\n","    )\n","text"]},{"cell_type":"code","execution_count":93,"metadata":{"executionInfo":{"elapsed":15,"status":"ok","timestamp":1662963660147,"user":{"displayName":"santhosh kurnapally","userId":"15491120331264307379"},"user_tz":-330},"id":"4jRIK_4xQuEg"},"outputs":[],"source":["def transcribe(data):\n","    idx, file = data\n","    name = \"parts/\" + file\n","    print(name + \" started\")\n","    # Load audio file\n","    with sr.AudioFile(name) as source:\n","        audio = r.record(source)\n","    # Transcribe audio file\n","    text = r.recognize_google_cloud(audio, credentials_json=GOOGLE_CLOUD_SPEECH_CREDENTIALS)\n","    print(name + \" done\")\n","    return {\n","        \"idx\": idx,\n","        \"text\": text\n","    }"]},{"cell_type":"code","execution_count":94,"metadata":{"colab":{"base_uri":"https://localhost:8080/"},"executionInfo":{"elapsed":14,"status":"ok","timestamp":1662963660148,"user":{"displayName":"santhosh kurnapally","userId":"15491120331264307379"},"user_tz":-330},"id":"5sSVia5EQxCf","outputId":"7a33baf3-88dd-400d-bc9c-2b2c4334a36b"},"outputs":[{"name":"stdout","output_type":"stream","text":["parts/out000000000.wav startedparts/out000000001.wav started\n","\n","parts/out000000002.wav started\n","parts/out000000002.wav done\n","parts/out000000001.wav done\n","parts/out000000000.wav done\n"]}],"source":["# running them in parallel to make it faster\n","all_text = pool.map(transcribe, enumerate(files))\n","pool.close()\n","pool.join()\n"]},{"cell_type":"code","execution_count":95,"metadata":{"colab":{"base_uri":"https://localhost:8080/"},"executionInfo":{"elapsed":11,"status":"ok","timestamp":1662963660149,"user":{"displayName":"santhosh kurnapally","userId":"15491120331264307379"},"user_tz":-330},"id":"dn2Ya8GtZCw9","outputId":"a321b29d-99f0-4e72-f0e3-3c983bd94be1"},"outputs":[{"data":{"text/plain":["[{'idx': 0,\n","  'text': 'this Dynamic Workshop aims to provide up-to-date information on pharmacological approaches, issues, and treatment in the geriatric population to assist in preventing medication related problems, appropriately and effectively managing medications and compliance. The concept of polypharmacy parentheses taking multiple types of drugs parentheses will also be discussed, as though '},\n"," {'idx': 1,\n","  'text': 'is a common issue that can impact adverse side effects in the geriatric population. Participants will leave with the knowledge and considerations of common drug interactions and how to minimize the effects that limit function. Summit professional education is approved provider of continuing education. This course is offered for 6. '},\n"," {'idx': 2,\n","  'text': '. discourse contains a Content classified under the both the domain of occupational therapy and professional issues. '}]"]},"execution_count":95,"metadata":{},"output_type":"execute_result"}],"source":["all_text"]},{"cell_type":"markdown","metadata":{"id":"e8m5f-NQXI5p"},"source":["# Hindi recognition"]},{"cell_type":"code","execution_count":109,"metadata":{"colab":{"base_uri":"https://localhost:8080/"},"executionInfo":{"elapsed":536,"status":"ok","timestamp":1662964069502,"user":{"displayName":"santhosh kurnapally","userId":"15491120331264307379"},"user_tz":-330},"id":"wO3ljbYSXOV-","outputId":"dfbaf3c5-2c8f-4dbf-fe5d-5134b0d8302c"},"outputs":[{"name":"stdout","output_type":"stream","text":["ffmpeg version 3.4.11-0ubuntu0.1 Copyright (c) 2000-2022 the FFmpeg developers\n","  built with gcc 7 (Ubuntu 7.5.0-3ubuntu1~18.04)\n","  configuration: --prefix=/usr --extra-version=0ubuntu0.1 --toolchain=hardened --libdir=/usr/lib/x86_64-linux-gnu --incdir=/usr/include/x86_64-linux-gnu --enable-gpl --disable-stripping --enable-avresample --enable-avisynth --enable-gnutls --enable-ladspa --enable-libass --enable-libbluray --enable-libbs2b --enable-libcaca --enable-libcdio --enable-libflite --enable-libfontconfig --enable-libfreetype --enable-libfribidi --enable-libgme --enable-libgsm --enable-libmp3lame --enable-libmysofa --enable-libopenjpeg --enable-libopenmpt --enable-libopus --enable-libpulse --enable-librubberband --enable-librsvg --enable-libshine --enable-libsnappy --enable-libsoxr --enable-libspeex --enable-libssh --enable-libtheora --enable-libtwolame --enable-libvorbis --enable-libvpx --enable-libwavpack --enable-libwebp --enable-libx265 --enable-libxml2 --enable-libxvid --enable-libzmq --enable-libzvbi --enable-omx --enable-openal --enable-opengl --enable-sdl2 --enable-libdc1394 --enable-libdrm --enable-libiec61883 --enable-chromaprint --enable-frei0r --enable-libopencv --enable-libx264 --enable-shared\n","  libavutil      55. 78.100 / 55. 78.100\n","  libavcodec     57.107.100 / 57.107.100\n","  libavformat    57. 83.100 / 57. 83.100\n","  libavdevice    57. 10.100 / 57. 10.100\n","  libavfilter     6.107.100 /  6.107.100\n","  libavresample   3.  7.  0 /  3.  7.  0\n","  libswscale      4.  8.100 /  4.  8.100\n","  libswresample   2.  9.100 /  2.  9.100\n","  libpostproc    54.  7.100 / 54.  7.100\n","\u001b[0;33mGuessed Channel Layout for Input Stream #0.0 : stereo\n","\u001b[0mInput #0, wav, from 'hindi.wav':\n","  Metadata:\n","    encoder         : Lavf59.27.100\n","  Duration: 00:01:40.37, bitrate: 1536 kb/s\n","    Stream #0:0: Audio: pcm_s16le ([1][0][0][0] / 0x0001), 48000 Hz, stereo, s16, 1536 kb/s\n","\u001b[1;35m[segment @ 0x5588f3ef6c00] \u001b[0mOpening 'partshindi/out000000000.wav' for writing\n","Output #0, segment, to 'partshindi/out%09d.wav':\n","  Metadata:\n","    encoder         : Lavf57.83.100\n","    Stream #0:0: Audio: pcm_s16le ([1][0][0][0] / 0x0001), 48000 Hz, stereo, s16, 1536 kb/s\n","Stream mapping:\n","  Stream #0:0 -\u003e #0:0 (copy)\n","Press [q] to stop, [?] for help\n","\u001b[1;35m[segment @ 0x5588f3ef6c00] \u001b[0mOpening 'partshindi/out000000001.wav' for writing\n","\u001b[1;35m[segment @ 0x5588f3ef6c00] \u001b[0mOpening 'partshindi/out000000002.wav' for writing\n","\u001b[1;35m[segment @ 0x5588f3ef6c00] \u001b[0mOpening 'partshindi/out000000003.wav' for writing\n","size=N/A time=00:01:40.35 bitrate=N/A speed= 597x    \n","video:0kB audio:18819kB subtitle:0kB other streams:0kB global headers:0kB muxing overhead: unknown\n"]}],"source":["!ffmpeg -i hindi.wav -f segment -segment_time 30 -c copy partshindi/out%09d.wav"]},{"cell_type":"code","execution_count":114,"metadata":{"colab":{"base_uri":"https://localhost:8080/"},"executionInfo":{"elapsed":6,"status":"ok","timestamp":1662964164197,"user":{"displayName":"santhosh kurnapally","userId":"15491120331264307379"},"user_tz":-330},"id":"C2A4oU2EXqDi","outputId":"2aa40ad4-bbcd-4093-ed73-a512d8ab3c28"},"outputs":[{"data":{"text/plain":["['out000000000.wav', 'out000000001.wav', 'out000000002.wav']"]},"execution_count":114,"metadata":{},"output_type":"execute_result"}],"source":["# get the list of all the files that we want to convert\n","files_hindi = sorted(os.listdir('partshindi/'))\n","files"]},{"cell_type":"code","execution_count":115,"metadata":{"colab":{"base_uri":"https://localhost:8080/","height":62,"output_embedded_package_id":"1uSMdDxNyoLJP6MOHk5NqtAQ9XoxeWbdT"},"executionInfo":{"elapsed":26964,"status":"ok","timestamp":1662964202977,"user":{"displayName":"santhosh kurnapally","userId":"15491120331264307379"},"user_tz":-330},"id":"x6sy3u-jXpur","outputId":"f4e71bb2-1fe1-4ff1-9730-10e2f120d289"},"outputs":[{"data":{"text/plain":"Output hidden; open in https://colab.research.google.com to view."},"metadata":{},"output_type":"display_data"}],"source":["name = 'partshindi/'+files_hindi[0]\n","from IPython.display import Audio\n","Audio(name)"]},{"cell_type":"code","execution_count":116,"metadata":{"executionInfo":{"elapsed":843,"status":"ok","timestamp":1662964215194,"user":{"displayName":"santhosh kurnapally","userId":"15491120331264307379"},"user_tz":-330},"id":"LlL6CjONZBD-"},"outputs":[],"source":["def transcribe(data):\n","    idx, file = data\n","    name = \"partshindi/\" + file\n","    print(name + \" started\")\n","    # Load audio file\n","    with sr.AudioFile(name) as source:\n","        audio = r.record(source)\n","    # Transcribe audio file\n","    text = r.recognize_google_cloud(audio, credentials_json=GOOGLE_CLOUD_SPEECH_CREDENTIALS)\n","    print(name + \" done\")\n","    return {\n","        \"idx\": idx,\n","        \"text\": text\n","    }"]},{"cell_type":"code","execution_count":117,"metadata":{"colab":{"base_uri":"https://localhost:8080/"},"executionInfo":{"elapsed":9865,"status":"ok","timestamp":1662964227718,"user":{"displayName":"santhosh kurnapally","userId":"15491120331264307379"},"user_tz":-330},"id":"8iuYyWbaX4Qa","outputId":"e8f4e025-6b99-42d8-b5a2-175f6674e016"},"outputs":[{"name":"stdout","output_type":"stream","text":["partshindi/out000000000.wav started\n","partshindi/out000000001.wav started\n","partshindi/out000000002.wav started\n","partshindi/out000000000.wav done\n","partshindi/out000000002.wav done\n","partshindi/out000000001.wav done\n"]}],"source":["# running them in parallel to make it faster\n","pool = Pool(8) # Number of concurrent threads\n","all_text = pool.map(transcribe, enumerate(files_hindi))\n","pool.close()\n","pool.join()\n","\n"]},{"cell_type":"code","execution_count":118,"metadata":{"colab":{"base_uri":"https://localhost:8080/"},"executionInfo":{"elapsed":5,"status":"ok","timestamp":1662964229253,"user":{"displayName":"santhosh kurnapally","userId":"15491120331264307379"},"user_tz":-330},"id":"MN6WNSyYX4Hh","outputId":"c40dfc8c-2684-475a-b2f0-1e47b822992f"},"outputs":[{"data":{"text/plain":["[{'idx': 0,\n","  'text': 'Google Plano I love you I love you I love you very very much '},\n"," {'idx': 1,\n","  'text': 'I love you and mount pocket blanket better Nana Banana cartoon alcohol bottle pinata '},\n"," {'idx': 2, 'text': 'Marion Kentucky take me to dental clinic video '}]"]},"execution_count":118,"metadata":{},"output_type":"execute_result"}],"source":["all_text"]},{"cell_type":"markdown","metadata":{"id":"HkXwI2l4X3ya"},"source":["# Telugu Recognition"]},{"cell_type":"code","execution_count":119,"metadata":{"colab":{"base_uri":"https://localhost:8080/"},"executionInfo":{"elapsed":8,"status":"ok","timestamp":1662964292615,"user":{"displayName":"santhosh kurnapally","userId":"15491120331264307379"},"user_tz":-330},"id":"1i_3pwKhXH9k","outputId":"063174e4-0ab2-49be-f856-128ac9f87f95"},"outputs":[{"name":"stdout","output_type":"stream","text":["ffmpeg version 3.4.11-0ubuntu0.1 Copyright (c) 2000-2022 the FFmpeg developers\n","  built with gcc 7 (Ubuntu 7.5.0-3ubuntu1~18.04)\n","  configuration: --prefix=/usr --extra-version=0ubuntu0.1 --toolchain=hardened --libdir=/usr/lib/x86_64-linux-gnu --incdir=/usr/include/x86_64-linux-gnu --enable-gpl --disable-stripping --enable-avresample --enable-avisynth --enable-gnutls --enable-ladspa --enable-libass --enable-libbluray --enable-libbs2b --enable-libcaca --enable-libcdio --enable-libflite --enable-libfontconfig --enable-libfreetype --enable-libfribidi --enable-libgme --enable-libgsm --enable-libmp3lame --enable-libmysofa --enable-libopenjpeg --enable-libopenmpt --enable-libopus --enable-libpulse --enable-librubberband --enable-librsvg --enable-libshine --enable-libsnappy --enable-libsoxr --enable-libspeex --enable-libssh --enable-libtheora --enable-libtwolame --enable-libvorbis --enable-libvpx --enable-libwavpack --enable-libwebp --enable-libx265 --enable-libxml2 --enable-libxvid --enable-libzmq --enable-libzvbi --enable-omx --enable-openal --enable-opengl --enable-sdl2 --enable-libdc1394 --enable-libdrm --enable-libiec61883 --enable-chromaprint --enable-frei0r --enable-libopencv --enable-libx264 --enable-shared\n","  libavutil      55. 78.100 / 55. 78.100\n","  libavcodec     57.107.100 / 57.107.100\n","  libavformat    57. 83.100 / 57. 83.100\n","  libavdevice    57. 10.100 / 57. 10.100\n","  libavfilter     6.107.100 /  6.107.100\n","  libavresample   3.  7.  0 /  3.  7.  0\n","  libswscale      4.  8.100 /  4.  8.100\n","  libswresample   2.  9.100 /  2.  9.100\n","  libpostproc    54.  7.100 / 54.  7.100\n","\u001b[0;33mGuessed Channel Layout for Input Stream #0.0 : stereo\n","\u001b[0mInput #0, wav, from 'telugu.wav':\n","  Metadata:\n","    encoder         : Lavf59.27.100\n","  Duration: 00:01:24.29, bitrate: 1536 kb/s\n","    Stream #0:0: Audio: pcm_s16le ([1][0][0][0] / 0x0001), 48000 Hz, stereo, s16, 1536 kb/s\n","\u001b[1;35m[segment @ 0x563f68148c00] \u001b[0mOpening 'partstelugu/out000000000.wav' for writing\n","Output #0, segment, to 'partstelugu/out%09d.wav':\n","  Metadata:\n","    encoder         : Lavf57.83.100\n","    Stream #0:0: Audio: pcm_s16le ([1][0][0][0] / 0x0001), 48000 Hz, stereo, s16, 1536 kb/s\n","Stream mapping:\n","  Stream #0:0 -\u003e #0:0 (copy)\n","Press [q] to stop, [?] for help\n","\u001b[1;35m[segment @ 0x563f68148c00] \u001b[0mOpening 'partstelugu/out000000001.wav' for writing\n","\u001b[1;35m[segment @ 0x563f68148c00] \u001b[0mOpening 'partstelugu/out000000002.wav' for writing\n","size=N/A time=00:01:24.28 bitrate=N/A speed= 681x    \n","video:0kB audio:15804kB subtitle:0kB other streams:0kB global headers:0kB muxing overhead: unknown\n"]}],"source":["!ffmpeg -i telugu.wav -f segment -segment_time 30 -c copy partstelugu/out%09d.wav"]},{"cell_type":"code","execution_count":135,"metadata":{"colab":{"base_uri":"https://localhost:8080/"},"executionInfo":{"elapsed":1493,"status":"ok","timestamp":1662964757425,"user":{"displayName":"santhosh kurnapally","userId":"15491120331264307379"},"user_tz":-330},"id":"I6TuwRL0ZVS1","outputId":"4878be47-a66d-45fc-bd67-b6bba1305190"},"outputs":[{"data":{"text/plain":["['out000000000.wav', 'out000000001.wav', 'out000000002.wav']"]},"execution_count":135,"metadata":{},"output_type":"execute_result"}],"source":["# get the list of all the files that we want to convert\n","files_telugu= sorted(os.listdir('partstelugu/'))\n","files"]},{"cell_type":"code","execution_count":136,"metadata":{"colab":{"background_save":true,"base_uri":"https://localhost:8080/","height":62,"output_embedded_package_id":"1RmVAuW5gRVhrgPot-P_x0T-Gd3QOTXb5"},"executionInfo":{"elapsed":28545,"status":"ok","timestamp":1662964791624,"user":{"displayName":"santhosh kurnapally","userId":"15491120331264307379"},"user_tz":-330},"id":"8IZuwHvGZc9f","outputId":"866531f6-5f5b-4a65-82e6-7678023c6c01"},"outputs":[],"source":["name = 'partstelugu/'+files_telugu[0]\n","from IPython.display import Audio\n","Audio(name)"]},{"cell_type":"code","execution_count":137,"metadata":{"executionInfo":{"elapsed":9,"status":"ok","timestamp":1662964791625,"user":{"displayName":"santhosh kurnapally","userId":"15491120331264307379"},"user_tz":-330},"id":"uhRCjeOXZzj3"},"outputs":[],"source":["def transcribe(data):\n","    idx, file = data\n","    name = \"partstelugu/\" + file\n","    print(name + \" started\")\n","    # Load audio file\n","    with sr.AudioFile(name) as source:\n","        audio = r.record(source)\n","    # Transcribe audio file\n","    text = r.recognize_google_cloud(audio, credentials_json=GOOGLE_CLOUD_SPEECH_CREDENTIALS)\n","    print(name + \" done\")\n","    return {\n","        \"idx\": idx,\n","        \"text\": text\n","    }"]},{"cell_type":"code","execution_count":138,"metadata":{"colab":{"background_save":true,"base_uri":"https://localhost:8080/"},"executionInfo":{"elapsed":767,"status":"ok","timestamp":1662964792384,"user":{"displayName":"santhosh kurnapally","userId":"15491120331264307379"},"user_tz":-330},"id":"wbZInXIWZ4si"},"outputs":[{"name":"stdout","output_type":"stream","text":["partstelugu/out000000000.wav startedpartstelugu/out000000001.wav started\n","partstelugu/out000000002.wav started\n","\n","partstelugu/out000000002.wav done\n","partstelugu/out000000000.wav done\n","partstelugu/out000000001.wav done\n"]},{"data":{"text/plain":["[{'idx': 0,\n","  'text': 'give me tomorrow Mutant Ninja Turtle Mera Dil badal De naat '},\n"," {'idx': 1,\n","  'text': 'mitigated boots Google since I smoked a real name just like this what are not same '},\n"," {'idx': 2,\n","  'text': \"Manisha margosa members volunteer team on Trump I don't nobody know your tongue \"}]"]},"execution_count":138,"metadata":{},"output_type":"execute_result"}],"source":["# running them in parallel to make it faster\n","pool = Pool(8) # Number of concurrent threads\n","all_text = pool.map(transcribe, enumerate(files_telugu))\n","pool.close()\n","pool.join()\n","all_text"]},{"cell_type":"markdown","metadata":{"id":"GMxGF7wGaBqi"},"source":["## Looks like API is woring fine for english but not good for other languages."]},{"cell_type":"code","execution_count":null,"metadata":{"id":"DJe_aFqwZ7ly"},"outputs":[],"source":[]}],"metadata":{"colab":{"collapsed_sections":[],"name":"","version":""},"kernelspec":{"display_name":"Python 3","name":"python3"}},"nbformat":4,"nbformat_minor":0}